<svg width="24" height="24" viewBox="0 0 24 24" fill="none" xmlns="http://www.w3.org/2000/svg">
<path d="M12 4C7.58172 4 4 7.58172 4 12H7C8.10457 12 9 12.8954 9 14V19C9 20.1046 8.10457 21 7 21H4C2.89543 21 2 20.1046 2 19V12C2 6.47715 6.47715 2 12 2C17.5228 2 22 6.47715 22 12V19C22 20.1046 21.1046 21 20 21H17C15.8954 21 15 20.1046 15 19V14C15 12.8954 15.8954 12 17 12H20C20 7.58172 16.4183 4 12 4ZM4 14V19H7V14H4ZM17 14V19H20V14H17Z" fill="black"/>
<path d="M3 13V19.5C4 19.5 6.2 19.5 7 19.5C7.8 19.5 8 18.8333 8 18.5C8 17.8333 8 16.1 8 14.5C8 12.9 7 12.8334 6.5 13H3ZM3 13C3 9.66668 4.8 3 12 3C19.2 3 21 9.66668 21 13M21 13H17.5C17 13 16 13.3 16 14.5C16 15.7 16 17.6667 16 18.5C16 19 16.3 20 17.5 20C18.7 20 19.6667 20 20 20C20.3333 20.1667 21 20.1 21 18.5C21 16.9 21 14.1667 21 13Z" stroke="#9747FF" stroke-width="3"/>
</svg>
